<?xml version="1.0" standalone="no"?>
<!DOCTYPE svg PUBLIC "-//W3C//DTD SVG 20010904//EN"
 "http://www.w3.org/TR/2001/REC-SVG-20010904/DTD/svg10.dtd">
<svg version="1.0" xmlns="http://www.w3.org/2000/svg"
 width="320.000000pt" height="320.000000pt" viewBox="0 0 320.000000 320.000000"
 preserveAspectRatio="xMidYMid meet">
<metadata>
Created by potrace 1.14, written by Peter Selinger 2001-2017
</metadata>
<g transform="translate(0.000000,320.000000) scale(0.100000,-0.100000)"
fill="#000000" stroke="none">
<path d="M1505 2543 c-320 -51 -511 -198 -560 -429 -42 -200 69 -427 260 -533
138 -77 311 -228 373 -326 13 -22 26 -42 28 -44 2 -2 36 28 76 67 97 93 132
121 263 202 60 38 128 84 149 102 l39 34 -22 70 c-85 265 -308 431 -561 419
-130 -6 -234 -69 -226 -136 12 -103 185 -204 364 -211 46 -1 52 -14 31 -62
-42 -92 -298 -34 -433 98 -64 63 -91 126 -91 211 0 84 20 132 76 176 113 89
352 100 523 25 180 -80 342 -237 416 -404 l24 -53 15 28 c42 79 60 157 58 254
-3 89 -6 102 -39 170 -41 82 -111 159 -194 214 -52 35 -176 92 -218 101 -136
30 -268 40 -351 27z"/>
<path d="M732 1988 c-79 -220 -98 -355 -77 -551 17 -165 92 -305 244 -457 146
-146 292 -239 455 -289 67 -21 88 -26 154 -37 l32 -5 0 220 0 219 -50 55 c-69
75 -175 154 -300 223 -160 87 -232 146 -306 251 -90 125 -140 287 -122 397 4
28 6 52 4 53 -2 2 -17 -33 -34 -79z"/>
<path d="M2436 2030 c11 -73 7 -121 -22 -218 -51 -176 -180 -324 -374 -429
-140 -76 -221 -133 -302 -214 l-78 -76 0 -222 c0 -130 4 -221 9 -221 36 0 170
36 245 67 142 56 249 127 369 242 191 183 269 354 269 591 1 71 -9 188 -17
200 -2 3 -6 25 -10 48 -6 45 -69 235 -86 262 -7 10 -7 0 -3 -30z"/>
</g>
</svg>
